<?xml version="1.0" standalone="no"?>
<!DOCTYPE svg PUBLIC "-//W3C//DTD SVG 20010904//EN"
 "http://www.w3.org/TR/2001/REC-SVG-20010904/DTD/svg10.dtd">
<svg version="1.0" xmlns="http://www.w3.org/2000/svg"
 width="300.000000pt" height="300.000000pt" viewBox="0 0 300.000000 300.000000"
 preserveAspectRatio="xMidYMid meet">
<metadata>
Created by potrace 1.10, written by Peter Selinger 2001-2011
</metadata>
<g transform="translate(0.000000,300.000000) scale(0.100000,-0.100000)"
fill="#000000" stroke="none">
<path d="M1230 2668 c-19 -5 -42 -16 -50 -23 -8 -7 -33 -22 -55 -33 -60 -30
-87 -64 -93 -118 -4 -34 -10 -48 -23 -51 -11 -3 -19 -6 -19 -7 0 -2 16 -198
35 -437 58 -703 135 -1663 135 -1671 0 -5 188 -8 419 -8 l419 0 6 73 c7 91 1
213 -14 252 -6 16 -10 74 -9 130 2 116 -12 161 -45 149 -38 -14 -120 -8 -148
10 -15 10 -42 41 -59 69 -18 29 -46 69 -63 91 -26 33 -30 47 -30 102 l-1 63
-65 66 -65 66 -2 71 c-1 44 4 86 13 106 15 38 7 90 -21 126 -8 11 -15 30 -15
43 0 32 -34 63 -69 63 -31 0 -41 18 -41 73 0 19 -14 43 -46 77 l-47 50 7 105
c7 104 7 105 -18 129 -14 13 -26 30 -26 38 0 9 22 44 50 79 27 35 58 76 70 91
24 31 26 64 5 72 -27 10 -16 34 23 47 20 6 40 13 44 15 12 7 -11 69 -33 87
-24 19 -110 22 -169 5z m160 -28 c30 -30 25 -45 -20 -63 -32 -12 -40 -20 -40
-41 0 -14 8 -29 18 -35 12 -7 14 -14 7 -24 -5 -8 -23 -34 -39 -58 -16 -24 -32
-46 -36 -49 -3 -3 -18 -21 -33 -41 -34 -46 -35 -81 -2 -103 25 -17 25 -17 19
-126 l-7 -110 47 -49 c33 -37 46 -58 46 -80 0 -57 16 -81 54 -81 39 0 51 -12
60 -61 4 -21 13 -42 20 -48 21 -18 27 -69 12 -99 -17 -34 -20 -155 -5 -185 6
-12 39 -50 72 -85 59 -62 59 -63 53 -110 -6 -52 -9 -47 77 -176 46 -70 67 -91
100 -107 46 -20 108 -25 137 -9 27 14 34 -15 31 -130 -1 -55 3 -108 9 -125 7
-16 14 -92 17 -167 l5 -138 -406 0 c-223 0 -406 4 -406 8 0 4 -16 197 -35 428
-19 230 -50 619 -70 864 -20 245 -42 519 -50 609 -14 158 -14 165 4 178 12 8
22 31 26 62 8 56 30 81 116 128 61 34 81 40 152 42 35 1 52 -4 67 -19z"/>
</g>
</svg>
